<svg width="80" height="80" viewBox="0 0 80 80" fill="none" xmlns="http://www.w3.org/2000/svg">
  <!-- Background -->
  <rect width="80" height="80" rx="12" fill="url(#aiGradient)"/>
  
  <!-- AI Brain -->
  <path d="M40 20 C50 20 60 30 60 40 C60 50 50 60 40 60 C30 60 20 50 20 40 C20 30 30 20 40 20 Z" fill="white" opacity="0.9"/>
  <path d="M40 25 C47 25 53 30 53 40 C53 50 47 55 40 55 C33 55 27 50 27 40 C27 30 33 25 40 25 Z" fill="url(#aiGradient)"/>
  
  <!-- Neural connections -->
  <circle cx="35" cy="35" r="3" fill="white"/>
  <circle cx="45" cy="35" r="3" fill="white"/>
  <circle cx="35" cy="45" r="3" fill="white"/>
  <circle cx="45" cy="45" r="3" fill="white"/>
  <circle cx="40" cy="40" r="4" fill="white"/>
  
  <!-- Connection lines -->
  <path d="M35 35 L40 40" stroke="white" stroke-width="2" opacity="0.8"/>
  <path d="M45 35 L40 40" stroke="white" stroke-width="2" opacity="0.8"/>
  <path d="M35 45 L40 40" stroke="white" stroke-width="2" opacity="0.8"/>
  <path d="M45 45 L40 40" stroke="white" stroke-width="2" opacity="0.8"/>
  
  <!-- Gradients -->
  <defs>
    <linearGradient id="aiGradient" x1="0%" y1="0%" x2="100%" y2="100%">
      <stop offset="0%" style="stop-color:#8B5CF6;stop-opacity:1" />
      <stop offset="100%" style="stop-color:#A855F7;stop-opacity:1" />
    </linearGradient>
  </defs>
</svg>
